<?xml version="1.0" encoding="UTF-8"?>
<svg xmlns="http://www.w3.org/2000/svg" version="1.1" viewBox="0 0 273 308">
  <defs>
    <style>
      .cls-1 {
        fill: #f0c323;
      }

      .cls-2 {
        fill: #373232;
      }
    </style>
  </defs>
  <!-- Generator: Adobe Illustrator 28.6.0, SVG Export Plug-In . SVG Version: 1.2.0 Build 709)  -->
  <g>
    <g id="Layer_1">
      <path class="cls-2" d="M55.9,226h5.3l18.4,42.9h-6.8l-4.3-10.6h-20.5l-4.2,10.6h-6.8l18.9-42.9ZM66.3,253.2l-8-19.7h-.1l-8.1,19.7h16.2Z"/>
      <path class="cls-2" d="M83.1,229.9c0-1.1.4-2.1,1.2-2.8,1.5-1.6,4-1.6,5.6,0,0,0,0,0,0,0,1.6,1.5,1.6,4,0,5.6,0,0,0,0,0,0-1.5,1.6-4,1.6-5.6,0,0,0,0,0,0,0-.8-.7-1.2-1.8-1.2-2.8ZM84.4,240.2h5.4v28.7h-5.4v-28.7Z"/>
      <path class="cls-2" d="M98.3,240.2h5.4v4.4h.1c.4-.8.9-1.5,1.4-2.1.6-.6,1.3-1.2,2-1.6.8-.5,1.6-.8,2.4-1.1.9-.3,1.8-.4,2.7-.4.8,0,1.6.1,2.4.4l-.2,5.9c-.4-.1-.9-.2-1.3-.3-.4,0-.9-.1-1.3-.1-2.3-.2-4.5.7-6.1,2.2-1.4,1.5-2.1,3.8-2.1,7v14.4h-5.4v-28.8Z"/>
      <path class="cls-2" d="M120.2,223.1h5.5v21.5h.1c.7-1.6,2-2.9,3.6-3.7,1.8-1,3.8-1.5,5.9-1.4,1.4,0,2.7.2,4,.6,1.2.4,2.4,1.1,3.3,2,1,1,1.8,2.1,2.3,3.4.6,1.6.9,3.3.9,4.9v18.5h-5.5v-16.9c0-1.2-.2-2.3-.5-3.4-.3-.9-.8-1.7-1.5-2.3-.6-.6-1.3-1-2.1-1.3-.8-.3-1.6-.4-2.4-.4-1.1,0-2.1.2-3.1.5-1,.4-1.8,1-2.6,1.7-.8.9-1.4,1.9-1.7,3-.4,1.4-.6,2.8-.6,4.3v14.8h-5.5v-45.9Z"/>
      <path class="cls-2" d="M152.3,254.6c0-2,.4-4,1.2-5.9.8-1.8,1.9-3.4,3.2-4.8,4.5-4.3,11.1-5.6,16.9-3.2,3.6,1.5,6.5,4.4,8.1,8,.8,1.9,1.2,3.9,1.2,5.9,0,2-.4,4-1.2,5.9-.8,1.8-1.9,3.4-3.2,4.8-4.5,4.3-11.1,5.6-16.9,3.2-3.6-1.5-6.6-4.4-8.1-8-.8-1.9-1.2-3.9-1.2-5.9ZM158.1,254.6c0,1.4.2,2.7.7,4,.4,1.2,1,2.2,1.9,3.1.8.9,1.9,1.6,3,2.1,2.5,1,5.4,1,7.9,0,1.1-.5,2.2-1.2,3-2.1.8-.9,1.5-2,1.9-3.1.9-2.6.9-5.4,0-8.1-.4-1.2-1-2.2-1.9-3.2-.8-.9-1.9-1.6-3-2-2.5-1-5.4-1-7.9,0-1.1.5-2.2,1.2-3,2-.8.9-1.5,2-1.9,3.2-.5,1.3-.7,2.7-.7,4.1Z"/>
      <path class="cls-2" d="M189.6,240.2h5.4v4.4h.1c.4-.8.9-1.5,1.5-2.1.6-.6,1.3-1.2,2-1.6.8-.5,1.6-.8,2.5-1.1.9-.3,1.8-.4,2.7-.4.8,0,1.6.1,2.4.4l-.2,5.9c-.4-.1-.9-.2-1.3-.3-.4,0-.9-.1-1.3-.1-2.3-.2-4.5.7-6.1,2.2-1.4,1.5-2.1,3.8-2.1,7v14.4h-5.5v-28.8Z"/>
      <path class="cls-2" d="M211.5,240.2h5.5v4.4h.1c.7-1.6,2-2.9,3.6-3.7,1.8-1,3.8-1.5,5.9-1.4,1.4,0,2.7.2,4,.6,1.2.4,2.4,1.1,3.3,2,1,1,1.8,2.1,2.3,3.4.6,1.6.9,3.3.9,4.9v18.5h-5.5v-16.9c0-1.2-.2-2.3-.5-3.4-.3-.9-.8-1.7-1.5-2.3-.6-.6-1.3-1-2.1-1.3-.8-.3-1.6-.4-2.5-.4-1.1,0-2.1.2-3.1.5-1,.4-1.8,1-2.5,1.7-.8.9-1.3,1.9-1.7,3-.4,1.4-.6,2.8-.6,4.3v14.8h-5.5v-28.8Z"/>
      <path class="cls-1" d="M102.6,172.3l-53.5-14.3c-.8-.2-1.7.3-1.9,1.1,0,0,0,0,0,0-2.8,12.5,1.8,26,13.1,32.9,14.2,8.7,32.7,4.3,41.4-9.9.1-.2.3-.5.4-.7l2.5-4.3c.9-1.6.4-3.6-1.2-4.5-.3-.2-.5-.3-.8-.4ZM223,145.1c-3.2-5.5-8.7-15.1-15.1-26.3-.7-1.2-2.3-1.7-3.5-1-.2.1-.4.3-.5.4l-40.2,40.2c-1,1-1.2,2.5-.4,3.7h0c.7,1.2,2.1,1.7,3.3,1.4l54.9-14.7c1.3-.3,2.2-1.7,1.8-3.1,0-.2-.1-.4-.2-.6ZM229.4,159.1c-.2-.9-1.1-1.4-1.9-1.1,0,0,0,0,0,0l-53.5,14.4c-1.8.5-2.8,2.3-2.3,4,0,.3.2.5.3.8l2.5,4.3c8.3,14.4,26.7,19.3,41.1,11,.2-.1.5-.3.7-.4,11.3-6.9,16-20.5,13.1-33h0ZM72.7,118.3c-1-1-2.7-.9-3.6,0-.1.1-.3.3-.4.5l-15.1,26.3c-.7,1.2-.3,2.7.9,3.4.2.1.4.2.6.3l54.9,14.7c1.3.3,2.6-.2,3.3-1.3h0c.7-1.2.5-2.8-.4-3.7l-40.2-40.2ZM198.1,101.8c-6.7-11.7-13.6-23.7-19.5-33.8-.9-1.6-3-2.1-4.6-1.2-.8.4-1.3,1.2-1.5,2l-21,78.4c-.4,1.4.2,2.8,1.4,3.6h0c1.3.8,3,.7,4.1-.4l39.9-39.9c2.3-2.3,2.8-5.8,1.2-8.6ZM123.6,150.8h0c1.2-.8,1.8-2.2,1.4-3.6l-21-78.3c-.5-1.8-2.3-2.8-4.1-2.4-.9.2-1.6.8-2,1.6-5.9,10.1-12.8,22.1-19.5,33.8-1.6,2.8-1.1,6.4,1.1,8.6l39.9,39.9c1.1,1.1,2.8,1.3,4.2.4h0ZM135.9,143.1c.8,2.5,1.3,3.1,2.9,3.1s2.1-.7,2.9-3.1,19.8-73.3,21-78.4c1.7-7.1,3.1-15-.7-22.4-6.8-12.8-22.7-17.7-35.5-10.9-4.6,2.5-8.4,6.3-10.9,10.9-3.8,7.4-2.4,15.4-.7,22.4,1.2,5.1,20.2,75.8,21,78.4h0Z"/>
      <circle class="cls-1" cx="138.3" cy="174.7" r="18.1" transform="translate(-25.6 23.7) rotate(-9)"/>
    </g>
  </g>
</svg>