<svg xmlns="http://www.w3.org/2000/svg" viewBox="0 0 500 500"><defs><style>.a{fill:#373232;}.b{fill:#f0c323;}</style></defs><title>Airhorn Logo Vertical Positive RGB</title><path class="a" d="M168.91,327h5.27l18.36,42.91h-6.79l-4.3-10.61H161l-4.24,10.61H150Zm10.42,27.21-8-19.69h-.12l-8.12,19.69Z"/><path class="a" d="M196.1,330.89a3.86,3.86,0,0,1,1.19-2.82,3.95,3.95,0,0,1,5.63,0,3.94,3.94,0,0,1,0,5.64,3.95,3.95,0,0,1-5.63,0A3.86,3.86,0,0,1,196.1,330.89Zm1.28,10.3h5.45v28.73h-5.45Z"/><path class="a" d="M211.27,341.19h5.45v4.43h.12a7.91,7.91,0,0,1,1.45-2.09,9.92,9.92,0,0,1,2-1.61,10.61,10.61,0,0,1,2.45-1.06,9.48,9.48,0,0,1,2.67-.39,7.73,7.73,0,0,1,2.42.36l-.24,5.88c-.45-.12-.89-.22-1.33-.3a6.76,6.76,0,0,0-1.34-.13,8,8,0,0,0-6.12,2.25q-2.11,2.24-2.12,7v14.42h-5.45Z"/><path class="a" d="M233.23,324.1h5.46v21.52h.12a8.06,8.06,0,0,1,3.57-3.73,11.85,11.85,0,0,1,5.88-1.42,12.55,12.55,0,0,1,4,.63,9,9,0,0,1,3.33,2,9.54,9.54,0,0,1,2.28,3.43,13.19,13.19,0,0,1,.85,4.94v18.48h-5.46V353a9.66,9.66,0,0,0-.54-3.42,6.36,6.36,0,0,0-1.46-2.31,5.43,5.43,0,0,0-2.09-1.27,7.8,7.8,0,0,0-2.45-.39,8.94,8.94,0,0,0-3.15.54,6.65,6.65,0,0,0-2.55,1.73,8.24,8.24,0,0,0-1.7,3,13.78,13.78,0,0,0-.6,4.3v14.79h-5.46Z"/><path class="a" d="M265.33,355.56a14.6,14.6,0,0,1,1.18-5.88,15.47,15.47,0,0,1,3.24-4.79,15.63,15.63,0,0,1,16.85-3.24,15.1,15.1,0,0,1,8.09,8,14.6,14.6,0,0,1,1.18,5.88,14.82,14.82,0,0,1-1.18,5.91,15,15,0,0,1-3.24,4.78,15.62,15.62,0,0,1-16.85,3.21,14.94,14.94,0,0,1-8.09-8A14.82,14.82,0,0,1,265.33,355.56Zm5.82,0a12,12,0,0,0,.66,4,9.17,9.17,0,0,0,1.88,3.15,8.78,8.78,0,0,0,3,2.06,10.59,10.59,0,0,0,7.88,0,8.78,8.78,0,0,0,3-2.06,9.15,9.15,0,0,0,1.87-3.15,12.46,12.46,0,0,0,0-8.06,9.11,9.11,0,0,0-1.87-3.16,8.76,8.76,0,0,0-3-2.05,10.59,10.59,0,0,0-7.88,0,8.76,8.76,0,0,0-3,2.05,9.13,9.13,0,0,0-1.88,3.16A11.87,11.87,0,0,0,271.15,355.56Z"/><path class="a" d="M302.58,341.19H308v4.43h.12a7.72,7.72,0,0,1,1.46-2.09,9.6,9.6,0,0,1,2-1.61,10.8,10.8,0,0,1,2.45-1.06,9.48,9.48,0,0,1,2.67-.39,7.64,7.64,0,0,1,2.42.36l-.24,5.88c-.44-.12-.89-.22-1.33-.3a6.76,6.76,0,0,0-1.34-.13,8,8,0,0,0-6.12,2.25q-2.11,2.24-2.12,7v14.42h-5.45Z"/><path class="a" d="M324.55,341.19H330v4.43h.12a8,8,0,0,1,3.58-3.73,11.79,11.79,0,0,1,5.88-1.42,12.53,12.53,0,0,1,4,.63,9,9,0,0,1,3.34,2,9.52,9.52,0,0,1,2.27,3.43,13,13,0,0,1,.85,4.94v18.48h-5.45V353a9.65,9.65,0,0,0-.55-3.42,6.34,6.34,0,0,0-1.45-2.31,5.58,5.58,0,0,0-2.09-1.27,7.82,7.82,0,0,0-2.46-.39,9,9,0,0,0-3.15.54,6.65,6.65,0,0,0-2.55,1.73,8.22,8.22,0,0,0-1.69,3,13.47,13.47,0,0,0-.61,4.3v14.79h-5.45Z"/><path class="b" d="M215.64,273.27,162.14,259a1.56,1.56,0,0,0-1.93,1.14c-2.82,12.47,1.84,26,13.14,32.89a30.11,30.11,0,0,0,41.82-10.61l2.47-4.29A3.29,3.29,0,0,0,215.64,273.27ZM336,246.07c-3.17-5.51-8.69-15.12-15.14-26.32a2.57,2.57,0,0,0-4.05-.54L276.65,259.4a3,3,0,0,0-.44,3.69l0,.05a3,3,0,0,0,3.34,1.34l54.87-14.73A2.52,2.52,0,0,0,336,246.07Zm6.35,14a1.59,1.59,0,0,0-1.94-1.14l-53.5,14.36a3.29,3.29,0,0,0-2,4.82l2.49,4.31A30.1,30.1,0,0,0,329.22,293C340.55,286.06,345.2,272.52,342.35,260ZM185.73,219.26a2.58,2.58,0,0,0-4,.55l-15.14,26.32a2.51,2.51,0,0,0,1.55,3.68L223,264.5a3,3,0,0,0,3.34-1.34l0-.05a3,3,0,0,0-.44-3.69Zm125.35-16.5c-6.72-11.67-13.65-23.7-19.51-33.83a3.33,3.33,0,0,0-6.1.82l-21,78.38a3.27,3.27,0,0,0,1.38,3.6l.05,0a3.28,3.28,0,0,0,4.11-.42l39.9-39.93A7.16,7.16,0,0,0,311.08,202.76Zm-74.45,49,0,0a3.26,3.26,0,0,0,1.38-3.6l-21-78.29a3.33,3.33,0,0,0-6.1-.81c-5.86,10.13-12.78,22.13-19.49,33.78a7.19,7.19,0,0,0,1.15,8.65l39.91,39.88A3.31,3.31,0,0,0,236.63,251.77Zm12.26-7.67c.78,2.47,1.34,3.13,2.88,3.13s2.09-.66,2.88-3.13,19.8-73.33,21-78.38c1.69-7.06,3.12-15-.71-22.42a26.24,26.24,0,0,0-46.37,0c-3.83,7.45-2.4,15.36-.71,22.42C229.09,170.77,248.07,241.55,248.89,244.1Z"/><circle class="b" cx="251.29" cy="275.71" r="18.09" transform="translate(-73.53 92.26) rotate(-18.2)"/></svg>